<svg width="300" height="300" viewBox="0 0 300 300" fill="none" xmlns="http://www.w3.org/2000/svg">
<rect width="300" height="300" rx="65" fill="black"/>
<circle cx="105" cy="105" r="105" transform="matrix(1 0 0 -1 45 255)" stroke="#557086" stroke-width="30"/>
<path d="M134.715 107.615C115.609 110.801 98.3226 119.447 85.1303 132.189L34.1803 59.832C30.996 54.8262 34.6353 48 40.5491 48H91.0441C96.0481 48 101.052 51.1855 103.327 55.2812L134.715 107.615ZM258.451 48C264.365 48 268.004 54.8262 264.82 59.832L213.87 132.189C200.677 119.447 183.391 110.801 164.285 107.615L195.673 55.2812C198.403 50.7305 202.952 48 207.956 48H258.451ZM149.727 120.812C193.854 120.812 229.792 156.764 229.792 200.906C229.792 245.504 193.854 281 149.727 281C105.146 281 69.6633 245.504 69.6633 200.906C69.6633 156.764 105.146 120.812 149.727 120.812Z" stroke="black" stroke-width="24"/>
<path d="M134.715 107.615C115.609 110.801 98.3226 119.447 85.1302 132.189L34.1803 59.832C30.996 54.8262 34.6353 48 40.5491 48H91.0441C96.0481 48 101.052 51.1855 103.327 55.2812L134.715 107.615ZM258.451 48C264.365 48 268.004 54.8262 264.82 59.832L213.87 132.189C200.677 119.447 183.391 110.801 164.285 107.615L195.673 55.2812C198.403 50.7305 202.952 48 207.956 48H258.451ZM149.727 120.812C193.854 120.812 229.792 156.764 229.792 200.906C229.792 245.504 193.854 281 149.727 281C105.146 281 69.6633 245.504 69.6633 200.906C69.6633 156.764 105.146 120.812 149.727 120.812Z" fill="white"/>
<path d="M182.812 240.062C183.188 242.312 182.25 244.562 180.375 245.875C178.5 247.375 176.062 247.375 174 246.438L150 233.5L125.812 246.438C123.938 247.375 121.312 247.375 119.625 245.875C117.75 244.562 116.812 242.312 117.188 240.062L121.688 212.688L102.188 193.375C100.5 191.875 99.9375 189.438 100.688 187.375C101.438 185.125 103.312 183.625 105.562 183.25L132.562 179.312L144.562 154.375C145.5 152.312 147.562 151 150 151C152.25 151 154.312 152.312 155.25 154.375L167.438 179.312L194.25 183.25C196.5 183.625 198.375 185.125 199.125 187.375C199.875 189.438 199.312 191.875 197.625 193.375L178.125 212.688L182.812 240.062ZM150 221.688L170.812 232.75L166.875 209.125L183.938 192.25L160.312 188.875L150 167.312V167.5V221.688Z" fill="black"/>
</svg>
