<svg width="300" height="300" viewBox="0 0 300 300" fill="none" xmlns="http://www.w3.org/2000/svg">
<rect width="300" height="300" rx="65" fill="white"/>
<path d="M197.314 196V117.536L178.754 126.88V119.328L199.49 107.936H205.506V196H197.314ZM230.222 196V186.272C230.222 181.408 230.307 177.397 230.478 174.24C230.734 171.083 231.289 168.48 232.142 166.432C233.081 164.384 234.531 162.635 236.494 161.184C238.542 159.648 241.401 158.112 245.07 156.576L269.646 145.952C272.803 144.587 275.15 143.264 276.686 141.984C278.307 140.619 279.417 138.997 280.014 137.12C280.611 135.243 280.91 132.811 280.91 129.824C280.91 125.301 280.27 121.931 278.99 119.712C277.71 117.493 275.406 116.043 272.078 115.36C268.835 114.592 264.185 114.208 258.126 114.208C255.993 114.208 253.39 114.293 250.318 114.464C247.331 114.549 244.217 114.72 240.974 114.976C237.817 115.147 234.83 115.36 232.014 115.616V108.832C234.403 108.491 237.219 108.192 240.462 107.936C243.705 107.595 247.075 107.339 250.574 107.168C254.073 106.997 257.358 106.912 260.43 106.912C264.441 106.912 268.153 107.125 271.566 107.552C275.065 107.893 278.137 108.789 280.782 110.24C283.427 111.605 285.475 113.781 286.926 116.768C288.377 119.669 289.102 123.637 289.102 128.672C289.102 133.621 288.59 137.589 287.566 140.576C286.542 143.477 284.835 145.867 282.446 147.744C280.142 149.536 277.027 151.285 273.102 152.992L245.198 164.896C242.894 165.92 241.23 167.115 240.206 168.48C239.267 169.76 238.713 171.467 238.542 173.6C238.371 175.648 238.286 178.336 238.286 181.664V188.704H289.102V196H230.222Z" fill="black"/>
<path d="M86.5556 190V110M86.5556 110L111 131.143M86.5556 110L62.1111 131.143" stroke="#4296DB" stroke-width="8" stroke-linecap="round" stroke-linejoin="round"/>
<circle cx="80" cy="80" r="80" transform="matrix(1 0 0 -1 7 230)" stroke="#4296DB" stroke-width="8"/>
</svg>
