<svg width="504" height="29" viewBox="0 0 504 29" fill="none" xmlns="http://www.w3.org/2000/svg">
<rect x="-1" y="1" width="502" height="27" transform="matrix(1 0 0 -1 2 29)" fill="#D9D9D9" stroke="black" stroke-width="2"/>
<mask id="path-2-outside-1_8_59" maskUnits="userSpaceOnUse" x="457" y="2" width="39" height="25" fill="black">
<rect fill="white" x="457" y="2" width="39" height="25"/>
<path d="M459 2H494V27H459V2Z"/>
</mask>
<path d="M459 2H494V27H459V2Z" fill="#2EB1C5"/>
<path d="M492 2V27H496V2H492ZM461 27V2H457V27H461Z" fill="black" mask="url(#path-2-outside-1_8_59)"/>
<mask id="path-4-outside-2_8_59" maskUnits="userSpaceOnUse" x="415" y="2" width="39" height="25" fill="black">
<rect fill="white" x="415" y="2" width="39" height="25"/>
<path d="M417 2H452V27H417V2Z"/>
</mask>
<path d="M417 2H452V27H417V2Z" fill="#2EB1C5"/>
<path d="M450 2V27H454V2H450ZM419 27V2H415V27H419Z" fill="black" mask="url(#path-4-outside-2_8_59)"/>
<mask id="path-6-outside-3_8_59" maskUnits="userSpaceOnUse" x="373" y="2" width="39" height="25" fill="black">
<rect fill="white" x="373" y="2" width="39" height="25"/>
<path d="M375 2H410V27H375V2Z"/>
</mask>
<path d="M375 2H410V27H375V2Z" fill="#2EB1C5"/>
<path d="M408 2V27H412V2H408ZM377 27V2H373V27H377Z" fill="black" mask="url(#path-6-outside-3_8_59)"/>
<path d="M476.794 20.1311C475.953 20.1311 475.253 20.0874 474.696 20C474.139 19.9016 473.696 19.7322 473.368 19.4918C473.04 19.2514 472.794 18.918 472.63 18.4918C472.477 18.0546 472.379 17.4973 472.335 16.8197C472.292 16.1421 472.27 15.3224 472.27 14.3607C472.27 13.3989 472.292 12.5792 472.335 11.9016C472.379 11.224 472.477 10.6721 472.63 10.2459C472.794 9.80875 473.04 9.46995 473.368 9.22951C473.696 8.98908 474.139 8.82514 474.696 8.73771C475.253 8.63935 475.953 8.59017 476.794 8.59017C477.647 8.59017 478.346 8.63935 478.893 8.73771C479.45 8.82514 479.893 8.98908 480.221 9.22951C480.548 9.46995 480.789 9.80875 480.942 10.2459C481.106 10.6721 481.21 11.224 481.253 11.9016C481.308 12.5792 481.335 13.3989 481.335 14.3607C481.335 15.3224 481.308 16.1421 481.253 16.8197C481.21 17.4973 481.106 18.0546 480.942 18.4918C480.789 18.918 480.548 19.2514 480.221 19.4918C479.893 19.7322 479.45 19.9016 478.893 20C478.346 20.0874 477.647 20.1311 476.794 20.1311ZM476.794 17.9344C477.122 17.9344 477.39 17.9235 477.598 17.9016C477.805 17.8689 477.969 17.7978 478.089 17.6885C478.21 17.5792 478.297 17.3989 478.352 17.1475C478.406 16.8852 478.439 16.5301 478.45 16.082C478.472 15.6339 478.483 15.0601 478.483 14.3607C478.483 13.6612 478.472 13.0874 478.45 12.6393C478.439 12.1913 478.406 11.8415 478.352 11.5902C478.297 11.3279 478.21 11.1421 478.089 11.0328C477.969 10.9235 477.805 10.8579 477.598 10.8361C477.401 10.8033 477.133 10.7869 476.794 10.7869C476.477 10.7869 476.21 10.8033 475.991 10.8361C475.783 10.8579 475.619 10.9235 475.499 11.0328C475.39 11.1421 475.308 11.3279 475.253 11.5902C475.199 11.8415 475.16 12.1913 475.139 12.6393C475.128 13.0874 475.122 13.6612 475.122 14.3607C475.122 15.0601 475.128 15.6339 475.139 16.082C475.16 16.5301 475.199 16.8852 475.253 17.1475C475.308 17.3989 475.39 17.5792 475.499 17.6885C475.619 17.7978 475.783 17.8689 475.991 17.9016C476.199 17.9235 476.466 17.9344 476.794 17.9344Z" fill="black"/>
<path d="M429.109 20V11.5902L426.995 12.4754V10.2295L430.011 8.72132H431.962V20H429.109ZM434.052 20V18.4426C434.052 17.8197 434.069 17.2842 434.102 16.8361C434.134 16.388 434.205 16.0055 434.315 15.6885C434.435 15.3716 434.621 15.1038 434.872 14.8852C435.124 14.6557 435.468 14.4481 435.905 14.2623L438.397 13.2623C438.714 13.1312 438.949 13.0164 439.102 12.918C439.255 12.8087 439.353 12.6776 439.397 12.5246C439.44 12.3716 439.462 12.1585 439.462 11.8852C439.462 11.5465 439.408 11.3006 439.298 11.1475C439.189 10.9836 438.992 10.8853 438.708 10.8525C438.424 10.8087 438.025 10.7869 437.511 10.7869C437.271 10.7869 436.971 10.7978 436.61 10.8197C436.26 10.8415 435.883 10.8689 435.479 10.9016C435.074 10.9344 434.675 10.9727 434.282 11.0164V8.95082C434.643 8.88525 435.052 8.82514 435.511 8.7705C435.971 8.71585 436.44 8.67214 436.921 8.63935C437.413 8.60656 437.867 8.59017 438.282 8.59017C438.828 8.59017 439.342 8.62842 439.823 8.70492C440.315 8.7705 440.746 8.90711 441.118 9.11476C441.49 9.32241 441.779 9.63388 441.987 10.0492C442.205 10.4645 442.315 11.0219 442.315 11.7213C442.315 12.4208 442.238 12.9836 442.085 13.4098C441.943 13.8361 441.73 14.1749 441.446 14.4262C441.162 14.6776 440.818 14.8852 440.413 15.0492L437.593 16.1475C437.375 16.235 437.205 16.3279 437.085 16.4262C436.976 16.5137 436.899 16.6339 436.856 16.7869C436.812 16.929 436.79 17.1202 436.79 17.3607V17.7869H442.315V20H434.052Z" fill="black"/>
<path d="M383.711 20V18.4426C383.711 17.8197 383.727 17.2842 383.76 16.8361C383.793 16.388 383.864 16.0055 383.973 15.6885C384.093 15.3716 384.279 15.1038 384.53 14.8852C384.782 14.6557 385.126 14.4481 385.563 14.2623L388.055 13.2623C388.372 13.1312 388.607 13.0164 388.76 12.918C388.913 12.8087 389.011 12.6776 389.055 12.5246C389.099 12.3716 389.12 12.1585 389.12 11.8852C389.12 11.5465 389.066 11.3006 388.957 11.1475C388.847 10.9836 388.651 10.8853 388.366 10.8525C388.082 10.8087 387.683 10.7869 387.17 10.7869C386.929 10.7869 386.629 10.7978 386.268 10.8197C385.918 10.8415 385.541 10.8689 385.137 10.9016C384.732 10.9344 384.334 10.9727 383.94 11.0164V8.95082C384.301 8.88525 384.711 8.82514 385.17 8.7705C385.629 8.71585 386.099 8.67214 386.579 8.63935C387.071 8.60656 387.525 8.59017 387.94 8.59017C388.487 8.59017 389 8.62842 389.481 8.70492C389.973 8.7705 390.405 8.90711 390.776 9.11476C391.148 9.32241 391.437 9.63388 391.645 10.0492C391.864 10.4645 391.973 11.0219 391.973 11.7213C391.973 12.4208 391.896 12.9836 391.743 13.4098C391.601 13.8361 391.388 14.1749 391.104 14.4262C390.82 14.6776 390.476 14.8852 390.071 15.0492L387.252 16.1475C387.033 16.235 386.864 16.3279 386.743 16.4262C386.634 16.5137 386.558 16.6339 386.514 16.7869C386.47 16.929 386.448 17.1202 386.448 17.3607V17.7869H391.973V20H383.711ZM394.535 20L398.683 10.9344H393.437V8.72132H401.683V10.7377L397.666 20H394.535Z" fill="white"/>
<mask id="path-11-outside-4_8_59" maskUnits="userSpaceOnUse" x="10" y="2" width="16" height="25" fill="black">
<rect fill="white" x="10" y="2" width="16" height="25"/>
<path d="M12 2H24V27H12V2Z"/>
</mask>
<path d="M12 2H24V27H12V2Z" fill="#2EB1C5"/>
<path d="M22 2V27H26V2H22ZM14 27V2H10V27H14Z" fill="black" mask="url(#path-11-outside-4_8_59)"/>
<path d="M35.616 20.128C34.8267 20.128 34.1653 20.08 33.632 19.984C33.0987 19.8773 32.6613 19.7013 32.32 19.456C31.9893 19.2107 31.7333 18.88 31.552 18.464C31.3813 18.0373 31.264 17.4987 31.2 16.848C31.136 16.1973 31.104 15.4133 31.104 14.496C31.104 13.5787 31.136 12.7947 31.2 12.144C31.264 11.4933 31.3813 10.96 31.552 10.544C31.7333 10.1173 31.9893 9.78133 32.32 9.536C32.6613 9.29067 33.0987 9.12 33.632 9.024C34.1653 8.91733 34.8267 8.864 35.616 8.864C35.9253 8.864 36.24 8.87467 36.56 8.896C36.8907 8.91733 37.2053 8.94933 37.504 8.992C37.8027 9.024 38.0587 9.06667 38.272 9.12V10.56C38.0053 10.528 37.7387 10.5013 37.472 10.48C37.216 10.448 36.9653 10.4267 36.72 10.416C36.4747 10.4053 36.2613 10.4 36.08 10.4C35.4933 10.4 35.008 10.4213 34.624 10.464C34.24 10.5067 33.9307 10.6027 33.696 10.752C33.472 10.9013 33.3013 11.1253 33.184 11.424C33.0773 11.712 33.0027 12.1067 32.96 12.608C32.928 13.1093 32.912 13.7387 32.912 14.496C32.912 15.2427 32.928 15.872 32.96 16.384C33.0027 16.8853 33.0773 17.2853 33.184 17.584C33.3013 17.872 33.472 18.0907 33.696 18.24C33.9307 18.3893 34.24 18.4853 34.624 18.528C35.008 18.5707 35.4933 18.592 36.08 18.592C36.432 18.592 36.816 18.576 37.232 18.544C37.6587 18.512 38.0267 18.4747 38.336 18.432V19.904C38.1013 19.9467 37.824 19.984 37.504 20.016C37.1947 20.048 36.8747 20.0747 36.544 20.096C36.224 20.1173 35.9147 20.128 35.616 20.128ZM41.2039 20L45.5559 10.544H39.7799V8.992H47.5239V10.4L43.2039 20H41.2039ZM52.8584 20.128C52.517 20.128 52.1384 20.112 51.7224 20.08C51.317 20.0587 50.917 20.0267 50.5224 19.984C50.1277 19.9413 49.7757 19.888 49.4664 19.824V18.4C49.861 18.432 50.2557 18.464 50.6504 18.496C51.045 18.528 51.4184 18.5547 51.7704 18.576C52.133 18.5867 52.4424 18.592 52.6984 18.592C53.2317 18.592 53.669 18.5653 54.0104 18.512C54.3517 18.448 54.613 18.3467 54.7944 18.208C54.9864 18.0587 55.1197 17.8667 55.1944 17.632C55.269 17.3867 55.3064 17.0773 55.3064 16.704C55.3064 16.288 55.2637 15.9573 55.1784 15.712C55.1037 15.456 54.9597 15.2693 54.7464 15.152C54.5437 15.0347 54.261 14.96 53.8984 14.928C53.5464 14.8853 53.093 14.864 52.5384 14.864C52.293 14.864 52.005 14.8747 51.6744 14.896C51.3437 14.9067 50.997 14.928 50.6344 14.96C50.2717 14.9813 49.925 15.0133 49.5944 15.056V8.992H56.3304V10.544H51.2424V13.456C51.445 13.4347 51.685 13.4133 51.9624 13.392C52.2397 13.3707 52.517 13.3547 52.7944 13.344C53.0717 13.3333 53.317 13.328 53.5304 13.328C54.2877 13.328 54.901 13.3973 55.3704 13.536C55.8397 13.664 56.2024 13.8667 56.4584 14.144C56.725 14.4107 56.9064 14.7467 57.0024 15.152C57.0984 15.5467 57.1464 16.0053 57.1464 16.528C57.1464 17.168 57.0824 17.7227 56.9544 18.192C56.837 18.6507 56.6237 19.024 56.3144 19.312C56.005 19.5893 55.5677 19.7973 55.0024 19.936C54.4477 20.064 53.733 20.128 52.8584 20.128ZM60.2039 20L64.5559 10.544H58.7799V8.992H66.5239V10.4L62.2039 20H60.2039ZM73.8138 20V11.008L71.5898 12.016V10.448L74.3578 8.992H75.6218V20H73.8138ZM81.8428 20.128C81.5014 20.128 81.1228 20.112 80.7068 20.08C80.3014 20.0587 79.9014 20.0267 79.5068 19.984C79.1121 19.9413 78.7601 19.888 78.4508 19.824V18.4C78.8454 18.432 79.2401 18.464 79.6348 18.496C80.0294 18.528 80.4028 18.5547 80.7548 18.576C81.1174 18.5867 81.4268 18.592 81.6828 18.592C82.2161 18.592 82.6534 18.5653 82.9948 18.512C83.3361 18.448 83.5974 18.3467 83.7788 18.208C83.9708 18.0587 84.1041 17.8667 84.1788 17.632C84.2534 17.3867 84.2908 17.0773 84.2908 16.704C84.2908 16.288 84.2481 15.9573 84.1628 15.712C84.0881 15.456 83.9441 15.2693 83.7308 15.152C83.5281 15.0347 83.2454 14.96 82.8828 14.928C82.5308 14.8853 82.0774 14.864 81.5228 14.864C81.2774 14.864 80.9894 14.8747 80.6588 14.896C80.3281 14.9067 79.9814 14.928 79.6188 14.96C79.2561 14.9813 78.9094 15.0133 78.5788 15.056V8.992H85.3148V10.544H80.2268V13.456C80.4294 13.4347 80.6694 13.4133 80.9468 13.392C81.2241 13.3707 81.5014 13.3547 81.7788 13.344C82.0561 13.3333 82.3014 13.328 82.5148 13.328C83.2721 13.328 83.8854 13.3973 84.3548 13.536C84.8241 13.664 85.1868 13.8667 85.4427 14.144C85.7094 14.4107 85.8908 14.7467 85.9868 15.152C86.0828 15.5467 86.1308 16.0053 86.1308 16.528C86.1308 17.168 86.0668 17.7227 85.9388 18.192C85.8214 18.6507 85.6081 19.024 85.2987 19.312C84.9894 19.5893 84.5521 19.7973 83.9868 19.936C83.4321 20.064 82.7174 20.128 81.8428 20.128ZM90.9003 20V10.576H87.5563V8.992H96.0363V10.576H92.7083V20H90.9003ZM103.807 20V10.576H100.463V8.992H108.943V10.576H105.615V20H103.807ZM112.971 20.128C112.651 20.128 112.305 20.1173 111.931 20.096C111.569 20.0747 111.211 20.048 110.859 20.016C110.507 19.984 110.193 19.9467 109.915 19.904V18.56C110.097 18.5707 110.299 18.5867 110.523 18.608C110.758 18.6293 111.003 18.6453 111.259 18.656C111.515 18.6667 111.766 18.6773 112.011 18.688C112.257 18.6987 112.497 18.704 112.731 18.704C113.243 18.704 113.611 18.672 113.835 18.608C114.07 18.544 114.219 18.4373 114.283 18.288C114.358 18.128 114.395 17.9253 114.395 17.68C114.395 17.4027 114.369 17.2 114.315 17.072C114.273 16.944 114.187 16.8587 114.059 16.816C113.931 16.7733 113.734 16.736 113.467 16.704L111.483 16.464C110.971 16.4107 110.582 16.2933 110.315 16.112C110.059 15.92 109.883 15.664 109.787 15.344C109.702 15.0133 109.659 14.6133 109.659 14.144C109.659 13.6 109.734 13.168 109.883 12.848C110.043 12.5173 110.262 12.272 110.539 12.112C110.827 11.952 111.174 11.8453 111.579 11.792C111.985 11.7387 112.427 11.712 112.907 11.712C113.206 11.712 113.515 11.7227 113.835 11.744C114.166 11.7653 114.481 11.7973 114.779 11.84C115.089 11.872 115.355 11.9093 115.579 11.952V13.296C115.323 13.264 115.046 13.2373 114.747 13.216C114.449 13.1947 114.15 13.1787 113.851 13.168C113.563 13.1467 113.286 13.136 113.019 13.136C112.625 13.136 112.299 13.1573 112.043 13.2C111.787 13.232 111.595 13.3173 111.467 13.456C111.35 13.584 111.291 13.808 111.291 14.128C111.291 14.3733 111.307 14.56 111.339 14.688C111.382 14.8053 111.462 14.8907 111.579 14.944C111.707 14.9867 111.899 15.024 112.155 15.056L114.299 15.312C114.705 15.3547 115.03 15.44 115.275 15.568C115.531 15.6853 115.718 15.904 115.835 16.224C115.963 16.5333 116.027 17.008 116.027 17.648C116.027 18.1813 115.958 18.6133 115.819 18.944C115.691 19.264 115.494 19.5147 115.227 19.696C114.961 19.8667 114.635 19.9787 114.251 20.032C113.878 20.096 113.451 20.128 112.971 20.128ZM120.764 20.128C120.199 20.128 119.735 20.064 119.372 19.936C119.02 19.7973 118.748 19.5947 118.556 19.328C118.375 19.0613 118.252 18.7307 118.188 18.336C118.124 17.9413 118.092 17.4773 118.092 16.944V11.84H119.788V16.272C119.788 16.8053 119.804 17.232 119.836 17.552C119.879 17.8613 119.959 18.096 120.076 18.256C120.193 18.4053 120.364 18.5013 120.588 18.544C120.823 18.5867 121.132 18.608 121.516 18.608C121.943 18.608 122.284 18.5547 122.54 18.448C122.796 18.3413 122.983 18.1813 123.1 17.968C123.228 17.7547 123.308 17.488 123.34 17.168C123.372 16.848 123.388 16.4747 123.388 16.048V11.84H125.1V20H123.532L123.468 18.912H123.356C123.239 19.168 123.068 19.3867 122.844 19.568C122.631 19.7493 122.353 19.888 122.012 19.984C121.671 20.08 121.255 20.128 120.764 20.128ZM127.623 20V11.84H129.191L129.239 12.928H129.367C129.495 12.6613 129.666 12.4427 129.879 12.272C130.093 12.0907 130.37 11.952 130.711 11.856C131.053 11.76 131.469 11.712 131.959 11.712C132.535 11.712 132.999 11.7813 133.351 11.92C133.703 12.048 133.97 12.2453 134.151 12.512C134.333 12.7787 134.455 13.1093 134.519 13.504C134.594 13.8987 134.631 14.3627 134.631 14.896V20H132.919V15.568C132.919 15.0347 132.898 14.6133 132.855 14.304C132.823 13.984 132.749 13.7493 132.631 13.6C132.514 13.44 132.338 13.3387 132.103 13.296C131.879 13.2533 131.575 13.232 131.191 13.232C130.765 13.232 130.423 13.2853 130.167 13.392C129.922 13.4987 129.735 13.6587 129.607 13.872C129.49 14.0853 129.41 14.352 129.367 14.672C129.335 14.992 129.319 15.3653 129.319 15.792V20H127.623ZM139.235 20.128C138.68 20.128 138.211 20.0533 137.827 19.904C137.453 19.7547 137.171 19.5093 136.979 19.168C136.787 18.816 136.691 18.3413 136.691 17.744C136.691 17.1147 136.765 16.6187 136.915 16.256C137.064 15.8827 137.32 15.616 137.683 15.456C138.045 15.296 138.557 15.216 139.219 15.216C139.325 15.216 139.48 15.2213 139.683 15.232C139.896 15.232 140.136 15.2373 140.403 15.248C140.68 15.248 140.952 15.2533 141.219 15.264C141.496 15.264 141.747 15.2693 141.971 15.28V14.896C141.971 14.48 141.944 14.1547 141.891 13.92C141.837 13.6853 141.725 13.5147 141.555 13.408C141.395 13.2907 141.16 13.216 140.851 13.184C140.541 13.152 140.141 13.136 139.651 13.136C139.416 13.136 139.139 13.1467 138.819 13.168C138.509 13.1787 138.205 13.1947 137.907 13.216C137.608 13.2373 137.379 13.264 137.219 13.296V11.952C137.656 11.8667 138.136 11.808 138.659 11.776C139.181 11.7333 139.704 11.712 140.227 11.712C140.835 11.712 141.341 11.7493 141.747 11.824C142.163 11.8987 142.499 12.016 142.755 12.176C143.011 12.336 143.203 12.544 143.331 12.8C143.459 13.056 143.549 13.3653 143.603 13.728C143.656 14.08 143.683 14.4853 143.683 14.944V20H142.115L142.051 18.944H141.955C141.773 19.2853 141.528 19.5467 141.219 19.728C140.92 19.8987 140.595 20.0053 140.243 20.048C139.891 20.1013 139.555 20.128 139.235 20.128ZM139.987 18.752C140.253 18.752 140.493 18.736 140.707 18.704C140.931 18.6613 141.123 18.5973 141.283 18.512C141.453 18.416 141.587 18.288 141.683 18.128C141.779 17.9467 141.848 17.7387 141.891 17.504C141.944 17.2693 141.971 16.992 141.971 16.672V16.384H139.635C139.283 16.384 139.011 16.4107 138.819 16.464C138.637 16.5173 138.515 16.6293 138.451 16.8C138.387 16.9707 138.355 17.232 138.355 17.584C138.355 17.9147 138.392 18.1653 138.467 18.336C138.541 18.496 138.696 18.608 138.931 18.672C139.176 18.7253 139.528 18.752 139.987 18.752ZM146.217 20V11.84H147.785L147.833 12.928H147.945C148.062 12.672 148.222 12.4533 148.425 12.272C148.638 12.0907 148.9 11.952 149.209 11.856C149.529 11.76 149.913 11.712 150.361 11.712C151.044 11.712 151.556 11.8133 151.897 12.016C152.238 12.208 152.478 12.512 152.617 12.928H152.745C152.862 12.672 153.028 12.4533 153.241 12.272C153.465 12.0907 153.737 11.952 154.057 11.856C154.388 11.76 154.777 11.712 155.225 11.712C155.929 11.712 156.457 11.8293 156.809 12.064C157.161 12.2987 157.396 12.656 157.513 13.136C157.63 13.6053 157.689 14.192 157.689 14.896V20H155.993V15.568C155.993 15.0347 155.977 14.6133 155.945 14.304C155.913 13.984 155.844 13.7493 155.737 13.6C155.641 13.44 155.486 13.3387 155.273 13.296C155.07 13.2533 154.804 13.232 154.473 13.232C154.089 13.232 153.785 13.2853 153.561 13.392C153.337 13.488 153.172 13.6427 153.065 13.856C152.958 14.0587 152.889 14.32 152.857 14.64C152.825 14.96 152.809 15.344 152.809 15.792V20H151.113V15.568C151.113 15.0347 151.092 14.6133 151.049 14.304C151.017 13.984 150.948 13.7493 150.841 13.6C150.745 13.44 150.596 13.3387 150.393 13.296C150.19 13.2533 149.918 13.232 149.577 13.232C149.204 13.232 148.905 13.2853 148.681 13.392C148.457 13.4987 148.286 13.6587 148.169 13.872C148.062 14.0747 147.993 14.3413 147.961 14.672C147.929 14.992 147.913 15.3653 147.913 15.792V20H146.217ZM160.201 9.792V8.112H161.977V9.792H160.201ZM160.233 20V11.84H161.929V20H160.233Z" fill="black"/>
</svg>
